<?xml version="1.0" encoding="UTF-8"?>
<svg width="111px" height="111px" viewBox="0 0 111 111" version="1.1" xmlns="http://www.w3.org/2000/svg" xmlns:xlink="http://www.w3.org/1999/xlink">
    <title>Slice</title>
    <g id="Page-1" stroke="none" stroke-width="1" fill="none" fill-rule="evenodd">
        <path d="M88,10 C95.1797017,10 101,15.8202983 101,23 L101,68 C101,75.1797017 95.1797017,81 88,81 L87,81 L87,75 L88,75 C91.7854517,75 94.8690987,71.9952166 94.995941,68.2406498 L95,68 L95,23 C95,19.2145483 91.9952166,16.1309013 88.2406498,16.004059 L88,16 L43,16 C39.2145483,16 36.1309013,19.0047834 36.004059,22.7593502 L36,23 L36,24 L30,24 L30,23 C30,15.8202983 35.8202983,10 43,10 L88,10 Z" id="Combined-Shape" fill="#979797" fill-rule="nonzero"></path>
        <path d="M47.75,27.25 L47.75,69.3992189 L36.5,60.3992189 L25.25,69.3992189 L25.25,27.25 L47.75,27.25 Z" id="Rectangle" stroke="#979797" stroke-width="2.5"></path>
        <path d="M70,29 C77.1797017,29 83,34.8202983 83,42 L83,87 C83,94.1797017 77.1797017,100 70,100 L25,100 C17.8202983,100 12,94.1797017 12,87 L12,42 C12,35.1566232 17.2877796,29.5482734 24.0004329,29.0378567 L23.9999918,35.07089 C20.6851786,35.5450409 18.1195246,38.3415375 18.004059,41.7593502 L18,42 L18,87 C18,90.7854517 21.0047834,93.8690987 24.7593502,93.995941 L25,94 L70,94 C73.7854517,94 76.8690987,90.9952166 76.995941,87.2406498 L77,87 L77,42 C77,38.2145483 73.9952166,35.1309013 70.2406498,35.004059 L70,35 L49,35 L49,29 L70,29 Z" id="Combined-Shape" fill="#979797" fill-rule="nonzero"></path>
    </g>
</svg>